<svg width="1275" height="896" viewBox="0 0 1275 896" fill="none" xmlns="http://www.w3.org/2000/svg">
<rect width="1275" height="896" fill="#E5E5E5"/>
<rect width="1275" height="896" fill="white"/>
<g clip-path="url(#clip0)">
<path opacity="0.1" d="M1210 519.23C1210.01 536 1207.71 552.691 1203.15 568.83C1198.74 584.388 1192.26 599.282 1183.88 613.11C1183.88 663.21 1150.06 706.51 1100.97 727.11C1080.46 735.632 1058.45 739.983 1036.24 739.91H283.17C242.92 739.91 205.62 729.05 175.03 710.55C166.275 705.28 157.971 699.296 150.2 692.66C116.2 663.44 95.12 623.06 95.12 578.46C76.0382 549.077 65.9201 514.775 66 479.74C66 406.38 109.39 343.3 171.55 315.45C179.804 311.754 188.333 308.704 197.06 306.33C200.147 305.49 203.267 304.737 206.42 304.07C214.826 302.28 223.352 301.11 231.93 300.57C235.03 300.377 238.147 300.267 241.28 300.24H243C246.46 300.24 249.89 300.36 253.3 300.56L254.42 298.66C255.793 296.367 257.2 294.097 258.64 291.85C261.24 287.757 263.967 283.723 266.82 279.75C269.807 275.557 272.923 271.43 276.17 267.37L277 266.37C278.84 264.077 280.72 261.81 282.64 259.57C288.64 252.577 294.973 245.793 301.64 239.22C373.75 168.54 486.72 123.04 613.72 123.04C712.54 123.04 802.87 150.59 872.06 196.11C898.272 181.277 927.882 173.493 958 173.52C1055.74 173.52 1135 253.89 1135 353.03C1134.99 359.303 1134.65 365.571 1134 371.81C1157.56 388.488 1176.76 410.588 1189.99 436.245C1203.22 461.902 1210.08 490.364 1210 519.23V519.23Z" fill="#6C63FF"/>
<path opacity="0.2" d="M301.66 239.18V259.53H282.66C288.613 252.543 294.947 245.76 301.66 239.18Z" fill="#6C63FF"/>
<path opacity="0.2" d="M336.53 234.02H311.02V259.53H336.53V234.02Z" fill="#6C63FF"/>
<path opacity="0.2" d="M371.39 234.02H345.88V259.53H371.39V234.02Z" fill="#6C63FF"/>
<path opacity="0.2" d="M406.26 234.02H380.75V259.53H406.26V234.02Z" fill="#6C63FF"/>
<path opacity="0.2" d="M441.12 234.02H415.61V259.53H441.12V234.02Z" fill="#6C63FF"/>
<path opacity="0.2" d="M475.99 234.02H450.48V259.53H475.99V234.02Z" fill="#6C63FF"/>
<path d="M510.86 234.02H485.35V259.53H510.86V234.02Z" fill="#6C63FF"/>
<path opacity="0.2" d="M545.72 234.02H520.21V259.53H545.72V234.02Z" fill="#6C63FF"/>
<path opacity="0.2" d="M580.59 234.02H555.08V259.53H580.59V234.02Z" fill="#6C63FF"/>
<path opacity="0.2" d="M615.45 234.02H589.94V259.53H615.45V234.02Z" fill="#6C63FF"/>
<path d="M650.32 234.02H624.81V259.53H650.32V234.02Z" fill="#6C63FF"/>
<path opacity="0.2" d="M685.19 234.02H659.68V259.53H685.19V234.02Z" fill="#6C63FF"/>
<path opacity="0.2" d="M720.05 234.02H694.54V259.53H720.05V234.02Z" fill="#6C63FF"/>
<path opacity="0.2" d="M754.92 234.02H729.41V259.53H754.92V234.02Z" fill="#6C63FF"/>
<path opacity="0.2" d="M789.79 234.02H764.28V259.53H789.79V234.02Z" fill="#6C63FF"/>
<path opacity="0.2" d="M824.65 234.02H799.14V259.53H824.65V234.02Z" fill="#6C63FF"/>
<path opacity="0.2" d="M859.52 234.02H834.01V259.53H859.52V234.02Z" fill="#6C63FF"/>
<path d="M894.38 234.02H868.87V259.53H894.38V234.02Z" fill="#6C63FF"/>
<path d="M929.25 234.02H903.74V259.53H929.25V234.02Z" fill="#6C63FF"/>
<path opacity="0.2" d="M964.12 234.02H938.61V259.53H964.12V234.02Z" fill="#6C63FF"/>
<path opacity="0.2" d="M998.98 234.02H973.47V259.53H998.98V234.02Z" fill="#6C63FF"/>
<path d="M1033.85 234.02H1008.34V259.53H1033.85V234.02Z" fill="#6C63FF"/>
<path d="M1068.71 234.02H1043.2V259.53H1068.71V234.02Z" fill="#6C63FF"/>
<path d="M266.8 279.74V291.84H258.62C261.22 287.72 263.947 283.687 266.8 279.74Z" fill="#6C63FF"/>
<path opacity="0.2" d="M301.66 266.33H276.15V291.84H301.66V266.33Z" fill="#6C63FF"/>
<path d="M336.53 266.33H311.02V291.84H336.53V266.33Z" fill="#6C63FF"/>
<path opacity="0.2" d="M371.39 266.33H345.88V291.84H371.39V266.33Z" fill="#6C63FF"/>
<path opacity="0.7" d="M406.26 266.33H380.75V291.84H406.26V266.33Z" fill="#6C63FF"/>
<path opacity="0.2" d="M441.12 266.33H415.61V291.84H441.12V266.33Z" fill="#6C63FF"/>
<path opacity="0.4" d="M475.99 266.33H450.48V291.84H475.99V266.33Z" fill="#6C63FF"/>
<path d="M510.86 266.33H485.35V291.84H510.86V266.33Z" fill="#6C63FF"/>
<path opacity="0.4" d="M545.72 266.33H520.21V291.84H545.72V266.33Z" fill="#6C63FF"/>
<path opacity="0.2" d="M580.59 266.33H555.08V291.84H580.59V266.33Z" fill="#6C63FF"/>
<path opacity="0.4" d="M615.45 266.33H589.94V291.84H615.45V266.33Z" fill="#6C63FF"/>
<path d="M650.32 266.33H624.81V291.84H650.32V266.33Z" fill="#6C63FF"/>
<path opacity="0.4" d="M685.19 266.33H659.68V291.84H685.19V266.33Z" fill="#6C63FF"/>
<path opacity="0.4" d="M720.05 266.33H694.54V291.84H720.05V266.33Z" fill="#6C63FF"/>
<path opacity="0.2" d="M754.92 266.33H729.41V291.84H754.92V266.33Z" fill="#6C63FF"/>
<path opacity="0.4" d="M789.79 266.33H764.28V291.84H789.79V266.33Z" fill="#6C63FF"/>
<path opacity="0.4" d="M824.65 266.33H799.14V291.84H824.65V266.33Z" fill="#6C63FF"/>
<path opacity="0.2" d="M859.52 266.33H834.01V291.84H859.52V266.33Z" fill="#6C63FF"/>
<path opacity="0.2" d="M894.38 266.33H868.87V291.84H894.38V266.33Z" fill="#6C63FF"/>
<path opacity="0.4" d="M929.25 266.33H903.74V291.84H929.25V266.33Z" fill="#6C63FF"/>
<path opacity="0.2" d="M964.12 266.33H938.61V291.84H964.12V266.33Z" fill="#6C63FF"/>
<path d="M998.98 266.33H973.47V291.84H998.98V266.33Z" fill="#6C63FF"/>
<path d="M1033.85 266.33H1008.34V291.84H1033.85V266.33Z" fill="#6C63FF"/>
<path d="M1068.71 266.33H1043.2V291.84H1068.71V266.33Z" fill="#6C63FF"/>
<path opacity="0.2" d="M197.06 306.33V324.16H171.55V315.45C179.804 311.754 188.333 308.704 197.06 306.33V306.33Z" fill="#6C63FF"/>
<path opacity="0.2" d="M231.93 300.57V324.16H206.42V304.07L231.93 300.57Z" fill="#6C63FF"/>
<path d="M266.79 298.65H241.28V324.16H266.79V298.65Z" fill="#6C63FF"/>
<path opacity="0.7" d="M301.66 298.65H276.15V324.16H301.66V298.65Z" fill="#6C63FF"/>
<path d="M336.53 298.65H311.02V324.16H336.53V298.65Z" fill="#6C63FF"/>
<path opacity="0.7" d="M371.39 298.65H345.88V324.16H371.39V298.65Z" fill="#6C63FF"/>
<path opacity="0.7" d="M406.26 298.65H380.75V324.16H406.26V298.65Z" fill="#6C63FF"/>
<path opacity="0.2" d="M441.12 298.65H415.61V324.16H441.12V298.65Z" fill="#6C63FF"/>
<path opacity="0.4" d="M475.99 298.65H450.48V324.16H475.99V298.65Z" fill="#6C63FF"/>
<path opacity="0.4" d="M510.86 298.65H485.35V324.16H510.86V298.65Z" fill="#6C63FF"/>
<path d="M545.72 298.65H520.21V324.16H545.72V298.65Z" fill="#6C63FF"/>
<path opacity="0.2" d="M580.59 298.65H555.08V324.16H580.59V298.65Z" fill="#6C63FF"/>
<path opacity="0.4" d="M615.45 298.65H589.94V324.16H615.45V298.65Z" fill="#6C63FF"/>
<path d="M650.32 298.65H624.81V324.16H650.32V298.65Z" fill="#6C63FF"/>
<path opacity="0.2" d="M685.19 298.65H659.68V324.16H685.19V298.65Z" fill="#6C63FF"/>
<path opacity="0.4" d="M720.05 298.65H694.54V324.16H720.05V298.65Z" fill="#6C63FF"/>
<path opacity="0.2" d="M754.92 298.65H729.41V324.16H754.92V298.65Z" fill="#6C63FF"/>
<path d="M789.79 298.65H764.28V324.16H789.79V298.65Z" fill="#6C63FF"/>
<path opacity="0.2" d="M824.65 298.65H799.14V324.16H824.65V298.65Z" fill="#6C63FF"/>
<path opacity="0.7" d="M859.52 298.65H834.01V324.16H859.52V298.65Z" fill="#6C63FF"/>
<path opacity="0.7" d="M894.38 298.65H868.87V324.16H894.38V298.65Z" fill="#6C63FF"/>
<path opacity="0.4" d="M929.25 298.65H903.74V324.16H929.25V298.65Z" fill="#6C63FF"/>
<path opacity="0.2" d="M964.12 298.65H938.61V324.16H964.12V298.65Z" fill="#6C63FF"/>
<path d="M998.98 298.65H973.47V324.16H998.98V298.65Z" fill="#6C63FF"/>
<path d="M1033.85 298.65H1008.34V324.16H1033.85V298.65Z" fill="#6C63FF"/>
<path d="M1068.71 298.65H1043.2V324.16H1068.71V298.65Z" fill="#6C63FF"/>
<path opacity="0.2" d="M197.06 330.96H171.55V356.47H197.06V330.96Z" fill="#6C63FF"/>
<path opacity="0.2" d="M231.93 330.96H206.42V356.47H231.93V330.96Z" fill="#6C63FF"/>
<path opacity="0.2" d="M266.79 330.96H241.28V356.47H266.79V330.96Z" fill="#6C63FF"/>
<path opacity="0.2" d="M301.66 330.96H276.15V356.47H301.66V330.96Z" fill="#6C63FF"/>
<path d="M336.53 330.96H311.02V356.47H336.53V330.96Z" fill="#6C63FF"/>
<path opacity="0.7" d="M371.39 330.96H345.88V356.47H371.39V330.96Z" fill="#6C63FF"/>
<path opacity="0.7" d="M406.26 330.96H380.75V356.47H406.26V330.96Z" fill="#6C63FF"/>
<path opacity="0.2" d="M441.12 330.96H415.61V356.47H441.12V330.96Z" fill="#6C63FF"/>
<path opacity="0.2" d="M475.99 330.96H450.48V356.47H475.99V330.96Z" fill="#6C63FF"/>
<path opacity="0.4" d="M510.86 330.96H485.35V356.47H510.86V330.96Z" fill="#6C63FF"/>
<path opacity="0.4" d="M545.72 330.96H520.21V356.47H545.72V330.96Z" fill="#6C63FF"/>
<path d="M580.59 330.96H555.08V356.47H580.59V330.96Z" fill="#6C63FF"/>
<path opacity="0.2" d="M615.45 330.96H589.94V356.47H615.45V330.96Z" fill="#6C63FF"/>
<path opacity="0.4" d="M650.32 330.96H624.81V356.47H650.32V330.96Z" fill="#6C63FF"/>
<path opacity="0.4" d="M685.19 330.96H659.68V356.47H685.19V330.96Z" fill="#6C63FF"/>
<path opacity="0.4" d="M720.05 330.96H694.54V356.47H720.05V330.96Z" fill="#6C63FF"/>
<path opacity="0.4" d="M754.92 330.96H729.41V356.47H754.92V330.96Z" fill="#6C63FF"/>
<path opacity="0.2" d="M789.79 330.96H764.28V356.47H789.79V330.96Z" fill="#6C63FF"/>
<path opacity="0.2" d="M824.65 330.96H799.14V356.47H824.65V330.96Z" fill="#6C63FF"/>
<path opacity="0.2" d="M859.52 330.96H834.01V356.47H859.52V330.96Z" fill="#6C63FF"/>
<path opacity="0.2" d="M894.38 330.96H868.87V356.47H894.38V330.96Z" fill="#6C63FF"/>
<path opacity="0.7" d="M929.25 330.96H903.74V356.47H929.25V330.96Z" fill="#6C63FF"/>
<path opacity="0.7" d="M964.12 330.96H938.61V356.47H964.12V330.96Z" fill="#6C63FF"/>
<path opacity="0.4" d="M998.98 330.96H973.47V356.47H998.98V330.96Z" fill="#6C63FF"/>
<path opacity="0.2" d="M1033.85 330.96H1008.34V356.47H1033.85V330.96Z" fill="#6C63FF"/>
<path d="M1068.71 330.96H1043.2V356.47H1068.71V330.96Z" fill="#6C63FF"/>
<path opacity="0.2" d="M197.06 363.28H171.55V388.79H197.06V363.28Z" fill="#6C63FF"/>
<path opacity="0.2" d="M231.93 363.28H206.42V388.79H231.93V363.28Z" fill="#6C63FF"/>
<path opacity="0.4" d="M266.79 363.28H241.28V388.79H266.79V363.28Z" fill="#6C63FF"/>
<path opacity="0.2" d="M301.66 363.28H276.15V388.79H301.66V363.28Z" fill="#6C63FF"/>
<path opacity="0.2" d="M336.53 363.28H311.02V388.79H336.53V363.28Z" fill="#6C63FF"/>
<path opacity="0.7" d="M371.39 363.28H345.88V388.79H371.39V363.28Z" fill="#6C63FF"/>
<path opacity="0.7" d="M406.26 363.28H380.75V388.79H406.26V363.28Z" fill="#6C63FF"/>
<path opacity="0.2" d="M441.12 363.28H415.61V388.79H441.12V363.28Z" fill="#6C63FF"/>
<path opacity="0.2" d="M475.99 363.28H450.48V388.79H475.99V363.28Z" fill="#6C63FF"/>
<path opacity="0.4" d="M510.86 363.28H485.35V388.79H510.86V363.28Z" fill="#6C63FF"/>
<path d="M545.72 363.28H520.21V388.79H545.72V363.28Z" fill="#6C63FF"/>
<path opacity="0.2" d="M580.59 363.28H555.08V388.79H580.59V363.28Z" fill="#6C63FF"/>
<path d="M615.45 363.28H589.94V388.79H615.45V363.28Z" fill="#6C63FF"/>
<path d="M650.32 363.28H624.81V388.79H650.32V363.28Z" fill="#6C63FF"/>
<path d="M685.19 363.28H659.68V388.79H685.19V363.28Z" fill="#6C63FF"/>
<path opacity="0.2" d="M720.05 363.28H694.54V388.79H720.05V363.28Z" fill="#6C63FF"/>
<path d="M754.92 363.28H729.41V388.79H754.92V363.28Z" fill="#6C63FF"/>
<path opacity="0.2" d="M789.79 363.28H764.28V388.79H789.79V363.28Z" fill="#6C63FF"/>
<path opacity="0.2" d="M824.65 363.28H799.14V388.79H824.65V363.28Z" fill="#6C63FF"/>
<path opacity="0.2" d="M859.52 363.28H834.01V388.79H859.52V363.28Z" fill="#6C63FF"/>
<path opacity="0.2" d="M894.38 363.28H868.87V388.79H894.38V363.28Z" fill="#6C63FF"/>
<path opacity="0.2" d="M929.25 363.28H903.74V388.79H929.25V363.28Z" fill="#6C63FF"/>
<path opacity="0.7" d="M964.12 363.28H938.61V388.79H964.12V363.28Z" fill="#6C63FF"/>
<path opacity="0.2" d="M998.98 363.28H973.47V388.79H998.98V363.28Z" fill="#6C63FF"/>
<path opacity="0.2" d="M1033.85 363.28H1008.34V388.79H1033.85V363.28Z" fill="#6C63FF"/>
<path d="M1068.71 363.28H1043.2V388.79H1068.71V363.28Z" fill="#6C63FF"/>
<path opacity="0.2" d="M197.06 395.59H171.55V421.1H197.06V395.59Z" fill="#6C63FF"/>
<path opacity="0.2" d="M231.93 395.59H206.42V421.1H231.93V395.59Z" fill="#6C63FF"/>
<path opacity="0.2" d="M266.79 395.59H241.28V421.1H266.79V395.59Z" fill="#6C63FF"/>
<path opacity="0.4" d="M301.66 395.59H276.15V421.1H301.66V395.59Z" fill="#6C63FF"/>
<path opacity="0.2" d="M336.53 395.59H311.02V421.1H336.53V395.59Z" fill="#6C63FF"/>
<path opacity="0.2" d="M371.39 395.59H345.88V421.1H371.39V395.59Z" fill="#6C63FF"/>
<path opacity="0.7" d="M406.26 395.59H380.75V421.1H406.26V395.59Z" fill="#6C63FF"/>
<path opacity="0.2" d="M441.12 395.59H415.61V421.1H441.12V395.59Z" fill="#6C63FF"/>
<path opacity="0.2" d="M475.99 395.59H450.48V421.1H475.99V395.59Z" fill="#6C63FF"/>
<path opacity="0.2" d="M510.86 395.59H485.35V421.1H510.86V395.59Z" fill="#6C63FF"/>
<path d="M545.72 395.59H520.21V421.1H545.72V395.59Z" fill="#6C63FF"/>
<path opacity="0.2" d="M580.59 395.59H555.08V421.1H580.59V395.59Z" fill="#6C63FF"/>
<path d="M615.45 395.59H589.94V421.1H615.45V395.59Z" fill="#6C63FF"/>
<path d="M650.32 395.59H624.81V421.1H650.32V395.59Z" fill="#6C63FF"/>
<path opacity="0.2" d="M685.19 395.59H659.68V421.1H685.19V395.59Z" fill="#6C63FF"/>
<path opacity="0.2" d="M720.05 395.59H694.54V421.1H720.05V395.59Z" fill="#6C63FF"/>
<path opacity="0.2" d="M754.92 395.59H729.41V421.1H754.92V395.59Z" fill="#6C63FF"/>
<path opacity="0.2" d="M789.79 395.59H764.28V421.1H789.79V395.59Z" fill="#6C63FF"/>
<path opacity="0.2" d="M824.65 395.59H799.14V421.1H824.65V395.59Z" fill="#6C63FF"/>
<path opacity="0.2" d="M859.52 395.59H834.01V421.1H859.52V395.59Z" fill="#6C63FF"/>
<path opacity="0.2" d="M894.38 395.59H868.87V421.1H894.38V395.59Z" fill="#6C63FF"/>
<path opacity="0.2" d="M929.25 395.59H903.74V421.1H929.25V395.59Z" fill="#6C63FF"/>
<path opacity="0.2" d="M964.12 395.59H938.61V421.1H964.12V395.59Z" fill="#6C63FF"/>
<path opacity="0.2" d="M998.98 395.59H973.47V421.1H998.98V395.59Z" fill="#6C63FF"/>
<path opacity="0.4" d="M1033.85 395.59H1008.34V421.1H1033.85V395.59Z" fill="#6C63FF"/>
<path d="M1068.71 395.59H1043.2V421.1H1068.71V395.59Z" fill="#6C63FF"/>
<path opacity="0.7" d="M197.06 427.91H171.55V453.42H197.06V427.91Z" fill="#6C63FF"/>
<path opacity="0.7" d="M231.93 427.91H206.42V453.42H231.93V427.91Z" fill="#6C63FF"/>
<path opacity="0.7" d="M266.79 427.91H241.28V453.42H266.79V427.91Z" fill="#6C63FF"/>
<path opacity="0.7" d="M301.66 427.91H276.15V453.42H301.66V427.91Z" fill="#6C63FF"/>
<path opacity="0.7" d="M336.53 427.91H311.02V453.42H336.53V427.91Z" fill="#6C63FF"/>
<path opacity="0.2" d="M371.39 427.91H345.88V453.42H371.39V427.91Z" fill="#6C63FF"/>
<path opacity="0.2" d="M406.26 427.91H380.75V453.42H406.26V427.91Z" fill="#6C63FF"/>
<path opacity="0.2" d="M441.12 427.91H415.61V453.42H441.12V427.91Z" fill="#6C63FF"/>
<path opacity="0.2" d="M475.99 427.91H450.48V453.42H475.99V427.91Z" fill="#6C63FF"/>
<path opacity="0.2" d="M510.86 427.91H485.35V453.42H510.86V427.91Z" fill="#6C63FF"/>
<path opacity="0.2" d="M545.72 427.91H520.21V453.42H545.72V427.91Z" fill="#6C63FF"/>
<path d="M580.59 427.91H555.08V453.42H580.59V427.91Z" fill="#6C63FF"/>
<path opacity="0.2" d="M615.45 427.91H589.94V453.42H615.45V427.91Z" fill="#6C63FF"/>
<path opacity="0.2" d="M650.32 427.91H624.81V453.42H650.32V427.91Z" fill="#6C63FF"/>
<path opacity="0.2" d="M685.19 427.91H659.68V453.42H685.19V427.91Z" fill="#6C63FF"/>
<path d="M720.05 427.91H694.54V453.42H720.05V427.91Z" fill="#6C63FF"/>
<path opacity="0.2" d="M754.92 427.91H729.41V453.42H754.92V427.91Z" fill="#6C63FF"/>
<path opacity="0.2" d="M789.79 427.91H764.28V453.42H789.79V427.91Z" fill="#6C63FF"/>
<path opacity="0.2" d="M824.65 427.91H799.14V453.42H824.65V427.91Z" fill="#6C63FF"/>
<path opacity="0.2" d="M859.52 427.91H834.01V453.42H859.52V427.91Z" fill="#6C63FF"/>
<path opacity="0.2" d="M894.38 427.91H868.87V453.42H894.38V427.91Z" fill="#6C63FF"/>
<path opacity="0.2" d="M929.25 427.91H903.74V453.42H929.25V427.91Z" fill="#6C63FF"/>
<path opacity="0.2" d="M964.12 427.91H938.61V453.42H964.12V427.91Z" fill="#6C63FF"/>
<path opacity="0.2" d="M998.98 427.91H973.47V453.42H998.98V427.91Z" fill="#6C63FF"/>
<path opacity="0.2" d="M1033.85 427.91H1008.34V453.42H1033.85V427.91Z" fill="#6C63FF"/>
<path d="M1068.71 427.91H1043.2V453.42H1068.71V427.91Z" fill="#6C63FF"/>
<path d="M800.52 521.76C819.778 521.76 835.39 506.148 835.39 486.89C835.39 467.632 819.778 452.02 800.52 452.02C781.262 452.02 765.65 467.632 765.65 486.89C765.65 506.148 781.262 521.76 800.52 521.76Z" fill="#767D9F"/>
<path d="M798.71 442.53C802.19 457.717 805.143 473.017 807.57 488.43C808.3 493.01 808.95 497.84 807.29 502.17C805.9 505.78 803.07 508.6 800.85 511.76C798.63 514.92 796.95 518.97 798.3 522.59C799.65 526.21 803.59 528.19 807.35 529.21C818.11 532.11 829.58 530 840.29 526.86C845.139 525.612 849.788 523.686 854.1 521.14C858.64 518.26 862.36 514.26 865.78 510.14C881.39 491.21 891.61 468.49 901.23 445.91C895.049 446.473 888.822 445.556 883.065 443.237C877.307 440.917 872.185 437.261 868.12 432.57C864.18 427.94 861.29 421.49 863.51 415.83C857 419.4 849.27 419.64 842.26 422.08C837.913 423.74 833.728 425.799 829.76 428.23C824.973 430.997 820.213 433.817 815.48 436.69C810.07 439.95 805 442.85 798.71 442.53Z" fill="#CD957D"/>
<path d="M871.64 468.71C865.53 480.6 857.58 492.03 846.23 499.11C834.88 506.19 819.6 508.11 808.23 501.11C802.63 497.69 798.39 492.49 793.5 488.11C788.61 483.73 782.5 479.98 775.93 480.55C768.69 481.18 763.02 486.83 758.17 492.24C750.81 500.46 743.7 509.03 738.49 518.76C728.49 537.46 726.12 559.32 726.56 580.52C727 601.72 730.07 622.81 730.14 644.01C730.24 670.09 725.82 695.96 721.35 721.65C762.45 716.59 803.6 727.65 844.79 731.84C871.15 734.55 897.71 734.49 924.21 734.42C928.87 734.42 933.83 734.3 937.71 731.72C940.082 729.99 941.999 727.712 943.3 725.08C946.96 718.33 948.43 710.63 949.45 703.02C952.04 683.8 952.12 664.34 952.19 644.94C952.37 597.94 952.54 550.77 946.57 504.14C945.1 492.67 943.22 481.14 938.82 470.41C934.42 459.68 927.24 449.81 917.2 444.06C910.75 440.36 895.8 433.92 888.2 437.65C879.67 441.81 875.73 460.75 871.64 468.71Z" fill="#767D9F"/>
<path d="M874.68 601.43C873.13 572.43 866.82 541.48 880.25 515.74C883.55 509.42 871.71 501.53 875.37 495.41C879.836 487.948 883.223 479.892 885.43 471.48C886.19 468.59 886.8 465.53 886.08 462.63C884.75 457.34 879.52 454.19 875.08 450.97C870.18 447.41 867.66 436.56 866.08 430.69C864.5 424.82 878.65 431.89 884.34 429.8C892.24 426.91 902.28 428.73 910.16 431.66C914.56 433.28 919.34 433.42 924.03 433.54C933.14 433.78 942.28 434.01 951.32 432.89C955.38 432.38 959.45 431.61 963.53 431.84C973.94 432.43 982.99 439.55 989.15 447.97C995.31 456.39 999.23 466.2 1004.28 475.32C1008.49 482.92 1013.51 490.1 1017.1 498.01C1020.28 505.01 1022.29 512.53 1024.28 520.01L1029.41 539.2C1030.31 541.945 1030.73 544.823 1030.67 547.71C1030.41 550.78 1029.05 553.64 1027.67 556.37C1022.45 566.489 1016.19 576.037 1009 584.86C998.21 598.09 985.11 610.02 978.7 625.86C976.2 632.03 974.81 638.59 973.54 645.13C968.42 671.287 964.78 697.713 962.64 724.28C950.955 718.873 938.707 714.778 926.12 712.07C919.845 710.728 913.503 709.726 907.12 709.07C901.53 708.49 894.32 709.59 889 708.07C880.1 705.54 879.12 690.49 877.77 682.61C875.61 670.06 875.18 657.29 875.1 644.61C875 630.19 875.45 615.8 874.68 601.43Z" fill="#4C4981"/>
<path d="M679.23 547.2C683.44 571.2 688.08 595.27 697.23 617.82C697 618.04 696.77 618.24 696.54 618.44C695.73 619.13 694.89 619.78 694.01 620.44C691.96 621.88 689.71 623.1 688.01 624.98C687.366 625.699 686.858 626.53 686.51 627.43C686.196 628.133 686.033 628.895 686.033 629.665C686.033 630.435 686.196 631.197 686.51 631.9C681.74 634.01 676.2 633.36 670.85 633.16C666.24 632.99 661.77 633.16 658.07 635.69C652.93 639.23 651.38 646.03 650.55 652.21C650.243 654.463 649.98 656.72 649.76 658.98C649.547 661.08 649.373 663.187 649.24 665.3C648.787 672.291 648.723 679.302 649.05 686.3C649.103 687.58 649.173 688.86 649.26 690.14C632.92 689.75 618.03 681.23 603.94 672.95C600.72 671.06 597.4 669.07 595.31 665.95C593.384 662.886 592.569 659.253 593 655.66C593 655.15 593.09 654.66 593.16 654.14C593.608 651.172 594.376 648.262 595.45 645.46C599.858 633.524 606.356 622.468 614.64 612.81C618.22 608.63 622.25 604.54 623.92 599.29C624.65 597 624.92 594.57 625.66 592.29C628.98 582.41 640.96 577.74 645.06 568.15C646.06 565.86 646.52 563.35 647.76 561.15C648.876 559.322 650.316 557.712 652.01 556.4C652.74 555.79 653.5 555.2 654.25 554.61C661.277 549.103 668.047 543.287 674.56 537.16C675.773 536.02 676.973 534.867 678.16 533.7C678.002 538.226 678.361 542.755 679.23 547.2V547.2Z" fill="#4C4981"/>
<path d="M780 476.22C778.56 477.74 777 479.17 775.47 480.59L775.06 480.96L773.44 482.46C770.5 484.998 767.955 487.96 765.89 491.25L765.72 491.53C760.62 500.66 762.51 511.9 763.93 522.27C765.691 535.193 766.483 548.229 766.3 561.27C766.04 579.27 763.92 597.15 763.88 615.13C763.88 619.21 763.97 623.28 764.15 627.36C764.44 633.99 764.94 640.61 765.54 647.23C766.19 654.49 766.97 661.74 767.7 668.99C768.28 674.6 768.83 680.2 769.29 685.8C769.52 688.7 769.74 691.59 769.92 694.49C770.13 697.89 770.3 701.3 770.4 704.7C770.47 706.86 770.51 709.01 770.51 711.17C770.51 712.4 770.51 713.62 770.51 714.84C770.51 717.18 770.447 719.513 770.32 721.84C770.187 724.833 769.983 727.833 769.71 730.84C769.4 734.11 768.85 737.68 766.55 739.98C766.41 740.12 766.26 740.25 766.11 740.38L762.87 739.98C740.535 737.306 717.986 736.904 695.57 738.78C696.06 735.4 696.51 732.03 696.95 728.64C697.15 727.04 697.35 725.43 697.54 723.82C697.76 721.98 697.97 720.14 698.17 718.3C698.4 716.3 698.61 714.3 698.81 712.3C699.33 707.147 699.787 701.99 700.18 696.83C700.76 689.303 701.2 681.763 701.5 674.21C701.647 670.603 701.76 666.993 701.84 663.38C701.953 658.9 702.007 654.417 702 649.93C702 645.57 701.963 641.203 701.89 636.83C701.89 635.39 701.83 633.95 701.71 632.52C701.624 631.232 701.447 629.953 701.18 628.69C700.437 625.779 699.433 622.941 698.18 620.21C697.96 619.69 697.75 619.21 697.54 618.66C697.42 618.39 697.31 618.11 697.2 617.84C702.96 612.71 707.06 605.84 711 599.08C717.39 588.19 723.93 576.82 725 564.24C726.07 551.66 719.82 537.53 707.8 533.69C704.53 532.69 701.07 532.41 697.7 531.82C694.52 531.26 687.89 529.99 684.21 527.71C682.21 529.763 680.21 531.78 678.21 533.76C678.331 530.739 679.07 527.775 680.38 525.05L681.8 525.12C681.684 524.8 681.63 524.46 681.64 524.12C681.64 523.05 682.38 521.84 683.96 520.5C688.67 516.5 696.08 515.61 699.05 510.2C700.29 507.95 700.5 505.27 701.5 502.91C704.37 496.18 712.61 493.7 717.57 488.32C722.53 482.94 723.77 475.32 727.78 469.32C730.775 464.938 734.93 461.476 739.78 459.32C740.18 459.13 740.59 458.94 741 458.77C749.3 455.22 759.16 454.41 767.76 454.43C771.1 454.43 779.76 454.53 784 456.22C784.688 456.466 785.317 456.85 785.85 457.35C790.37 462.27 783.34 472.66 780 476.22Z" fill="#4C4981"/>
<path d="M680.72 524.35C688.445 522.024 696.555 521.257 704.579 522.093C712.603 522.929 720.38 525.352 727.46 529.22C734.66 533.22 741.12 538.8 745.08 546C751.03 556.8 750.77 569.82 750.35 582.15C750.14 588.32 749.87 594.71 747.15 600.25C744 606.66 738.06 611.06 732 614.66C728.204 617.082 724.045 618.881 719.68 619.99C712.96 621.45 705.98 620.21 699.21 618.99C691.85 617.63 683.95 615.99 678.84 610.51C675.84 607.33 674.2 603.2 672.58 599.16C670.253 593.327 667.92 587.5 665.58 581.68C661.53 571.57 660.16 563.16 665.51 553.31C667.94 548.82 670.91 544.62 673.31 540.1C674.51 537.8 678.81 524.94 680.72 524.35Z" fill="#4C4981"/>
<path d="M1101 697.22V727.12C1080.49 735.641 1058.48 739.993 1036.27 739.92H766.58C766.44 740.06 766.29 740.19 766.14 740.32L762.9 739.92H283.17C242.92 739.92 205.62 729.06 175.03 710.56V664.91L405.75 638.28H405.93L540.29 649.66L575.06 652.66L593.12 654.19L630.5 657.36L649.73 658.99L677.73 661.37L681.67 661.7L701.85 663.41L729.23 665.66L767.73 668.92L831.91 674.37L877.06 678.2L951.2 684.49L965.3 685.68L966.82 685.81L968.14 685.92L986.76 687.5L1007.2 689.24L1009.57 689.44L1101 697.22Z" fill="#504F60"/>
<path d="M830 696.12L540.86 646.77L529.65 703.46L662.19 719.33L703 724.44L815.26 702.33L830 696.12Z" fill="#9C9CA1"/>
<path d="M680.33 721.6L825.19 694.37C825.915 694.231 826.661 694.255 827.376 694.438C828.09 694.622 828.755 694.962 829.323 695.433C829.891 695.905 830.348 696.496 830.66 697.164C830.972 697.833 831.133 698.562 831.13 699.3V699.3C831.133 700.471 830.726 701.605 829.978 702.506C829.231 703.407 828.191 704.017 827.04 704.23L685.57 730.72L680.33 721.6Z" fill="#9C9CA1"/>
<path d="M743.17 635.97C747.68 635.55 752.25 634.84 756.31 632.84C761.31 630.35 765.2 626.06 769.83 622.9C780.01 615.9 793.63 614.96 805.3 618.98C816.97 623 826.71 631.61 833.53 641.89C838.06 648.74 841.46 657.48 838.26 665.04C837.162 667.351 835.778 669.515 834.14 671.48L825.8 682.38C824.216 684.671 822.309 686.722 820.14 688.47C817.02 690.74 813.14 691.67 809.32 692.23C799.17 693.71 788.84 692.87 778.61 693.55C761.04 694.72 743.88 700.38 726.27 700.19C716.15 700.08 706.16 698.04 696.27 696L652.5 687C644.88 685.44 636.27 683.16 632.68 676.25C631.07 673.14 630.77 669.54 630.58 666.04C630.06 656.4 630.58 645.68 637.26 638.73C643.54 632.21 653.47 630.15 660.97 625.33C670.15 619.42 673.18 621.33 682.86 625.77C701.745 634.322 722.523 637.837 743.17 635.97V635.97Z" fill="#CD957D"/>
<path opacity="0.05" d="M743.17 635.97C747.68 635.55 752.25 634.84 756.31 632.84C761.31 630.35 765.2 626.06 769.83 622.9C780.01 615.9 793.63 614.96 805.3 618.98C816.97 623 826.71 631.61 833.53 641.89C838.06 648.74 841.46 657.48 838.26 665.04C837.162 667.351 835.778 669.515 834.14 671.48L825.8 682.38C824.216 684.671 822.309 686.722 820.14 688.47C817.02 690.74 813.14 691.67 809.32 692.23C799.17 693.71 788.84 692.87 778.61 693.55C761.04 694.72 743.88 700.38 726.27 700.19C716.15 700.08 706.16 698.04 696.27 696L652.5 687C644.88 685.44 636.27 683.16 632.68 676.25C631.07 673.14 630.77 669.54 630.58 666.04C630.06 656.4 630.58 645.68 637.26 638.73C643.54 632.21 653.47 630.15 660.97 625.33C670.15 619.42 673.18 621.33 682.86 625.77C701.745 634.322 722.523 637.837 743.17 635.97Z" fill="#D9AC82"/>
<path d="M918.94 622.26C906.66 627.01 894.31 631.78 881.45 634.61C859.89 639.36 837.33 638.61 815.94 644.04C804.64 646.92 793.41 651.56 781.8 650.62C776.61 650.2 771.6 648.62 766.55 647.42C738.18 640.42 705.93 642.69 682.89 660.69C675.01 666.84 668.56 674.51 662.71 682.69C661.458 684.457 660.612 686.478 660.232 688.61C659.853 690.742 659.948 692.931 660.513 695.022C661.078 697.112 662.097 699.052 663.499 700.702C664.9 702.353 666.649 703.674 668.62 704.57C677.58 708.691 687.178 711.251 697 712.14C710.13 713.3 723.32 711.44 736.38 709.58C755.76 706.83 775.15 704.07 794.48 700.98C801.42 699.87 808.36 698.72 815.34 697.84C865.57 691.49 916.71 699.21 967.07 693.91C972.16 693.37 977.34 692.67 981.97 690.5C993.69 685 999.49 670.5 997.07 657.76C994.65 645.02 985.31 634.43 974.07 627.93C964.65 622.46 954.49 620.25 944 617.93C934.26 615.66 928.32 618.66 918.94 622.26Z" fill="#CD957D"/>
<path opacity="0.1" d="M1026.67 546.1C1032.21 553.36 1033.39 563.1 1032.79 572.19C1032.19 581.28 1030.03 590.27 1029.71 599.4C1029.27 611.92 1032.29 624.4 1031.78 636.88C1031.42 645.61 1029.35 654.17 1026.9 662.55C1024.01 672.44 1019.83 683.07 1010.7 687.82C998.58 694.13 973.16 690.58 960.41 695.52C961.57 688.29 972.69 677.82 973.85 670.59C974.65 665.59 975.46 660.45 974.6 655.44C973.5 649.05 969.75 643.38 965.3 638.66C958.22 631.15 948.98 625.5 938.83 623.66C928.68 621.82 903.83 623.33 895.71 629.74C894.71 623.12 913.31 616.74 919.85 615.31C923.11 614.58 926.85 614.99 929.46 612.92C934.46 609 930.83 601.19 931.07 594.92C931.26 589.92 934.18 585.34 934.77 580.34C935.77 572.34 930.55 564.19 932.6 556.34C933.36 553.44 935.05 550.89 936.22 548.13C939.78 539.68 938.22 530.04 936.32 521.06C935.14 515.42 933.99 509.06 937.13 504.25C940.04 499.76 948.3 515.75 953.59 515.01C971.06 512.56 986.87 499.61 1000.98 510.21C1008.17 515.61 1009.11 521.21 1011.98 528.92C1014.77 536.26 1022 540.02 1026.67 546.1Z" fill="black"/>
<path d="M1029.67 546.1C1035.21 553.36 1036.39 563.1 1035.79 572.19C1035.19 581.28 1033.03 590.27 1032.71 599.4C1032.27 611.92 1035.29 624.4 1034.78 636.88C1034.42 645.61 1032.35 654.17 1029.9 662.55C1027.01 672.44 1022.83 683.07 1013.7 687.82C1001.58 694.13 976.16 690.58 963.41 695.52C964.57 688.29 975.69 677.82 976.85 670.59C977.65 665.59 978.46 660.45 977.6 655.44C976.5 649.05 972.75 643.38 968.3 638.66C961.22 631.15 951.98 625.5 941.83 623.66C931.68 621.82 906.83 623.33 898.71 629.74C897.71 623.12 916.31 616.74 922.85 615.31C926.11 614.58 929.85 614.99 932.46 612.92C937.46 609 933.83 601.19 934.07 594.92C934.26 589.92 937.18 585.34 937.77 580.34C938.77 572.34 933.55 564.19 935.6 556.34C936.36 553.44 938.05 550.89 939.22 548.13C942.78 539.68 941.22 530.04 939.32 521.06C938.14 515.42 936.99 509.06 940.13 504.25C943.04 499.76 948.73 498.06 954.02 497.31C971.732 494.914 989.678 499.544 1004.02 510.21C1011.21 515.61 1012.15 521.21 1015.02 528.92C1017.77 536.26 1025 540.02 1029.67 546.1Z" fill="#4C4981"/>
<path d="M368 498.72L422.37 699.66C423.037 702.122 424.439 704.322 426.388 705.968C428.337 707.613 430.741 708.625 433.28 708.87L678 732.38C679.994 732.572 682.006 732.284 683.866 731.539C685.726 730.794 687.381 729.614 688.691 728.098C690.001 726.582 690.929 724.774 691.397 722.826C691.865 720.878 691.859 718.846 691.38 716.9L631.84 474.52C631.132 471.639 629.425 469.102 627.022 467.361C624.62 465.62 621.678 464.787 618.72 465.01L379.13 482.93C377.29 483.073 375.505 483.62 373.901 484.532C372.297 485.445 370.915 486.699 369.852 488.208C368.789 489.716 368.072 491.44 367.752 493.257C367.431 495.074 367.516 496.939 368 498.72V498.72Z" fill="#9C9CA1"/>
<path d="M853.11 537.93C867.966 537.93 880.01 525.73 880.01 510.68C880.01 495.63 867.966 483.43 853.11 483.43C838.254 483.43 826.21 495.63 826.21 510.68C826.21 525.73 838.254 537.93 853.11 537.93Z" fill="white"/>
<path d="M875.2 460.97C875.2 460.97 880.87 477.83 864.14 484.92L862 488.66L872.48 499C872.48 499 885.4 475.43 884 467.06C884 467.06 882 458.56 875.2 460.97Z" fill="white"/>
<path d="M856.2 537.93C870.526 537.93 882.14 526.316 882.14 511.99C882.14 497.664 870.526 486.05 856.2 486.05C841.874 486.05 830.26 497.664 830.26 511.99C830.26 526.316 841.874 537.93 856.2 537.93Z" fill="#6C63FF"/>
<path d="M884.13 470.89L880.01 464.09L874.01 463.24C875.29 440.85 869.48 434.18 869.48 434.18L868.13 434.05L862.25 433.48L851.19 422V418.74C866.73 420.59 875.32 427.97 879.96 436.62C888.16 451.8 884.13 470.89 884.13 470.89Z" fill="#6C63FF"/>
<path opacity="0.1" d="M868.18 429.93V434.05L862.3 433.48L851.24 422C851.24 422 868.35 425.83 868.18 429.93Z" fill="black" stroke="#4C4981" stroke-miterlimit="10"/>
<path opacity="0.1" d="M884.13 470.89L880.01 464.09V436.66C888.16 451.8 884.13 470.89 884.13 470.89Z" fill="black" stroke="#4C4981" stroke-miterlimit="10"/>
<path d="M808.267 522.653C815.168 518.668 814.871 505.233 807.603 492.644C800.335 480.056 788.848 473.081 781.947 477.066C775.045 481.05 775.342 494.486 782.61 507.074C789.878 519.663 801.365 526.638 808.267 522.653Z" fill="white"/>
<path d="M799 497.66C806.27 510.25 815.19 518.66 808.29 522.66C801.39 526.66 781.29 524.66 774.02 512.06C766.75 499.46 773.35 482.06 780.25 478.06C787.15 474.06 791.72 485.04 799 497.66Z" fill="#6C63FF"/>
<path opacity="0.1" d="M863.73 406.96C863.73 447.19 836.2 485.96 795.97 485.96C776.649 485.96 758.119 478.285 744.457 464.623C730.795 450.961 723.12 432.431 723.12 413.11C723.12 393.789 730.795 375.259 744.457 361.597C758.119 347.935 776.649 340.26 795.97 340.26C836.2 340.3 863.73 366.72 863.73 406.96Z" fill="black"/>
<path d="M795.97 484C836.204 484 868.82 451.384 868.82 411.15C868.82 370.916 836.204 338.3 795.97 338.3C755.736 338.3 723.12 370.916 723.12 411.15C723.12 451.384 755.736 484 795.97 484Z" fill="#CD957D"/>
<path d="M789.57 378.87C798.24 382.06 803.37 391.02 811.15 396.01C822.15 403.01 836.47 401.2 849.03 397.74C856.03 395.83 863.35 393.5 870.24 395.62C871.253 396.069 872.371 396.228 873.47 396.08C874.97 395.65 875.71 393.99 876.2 392.51C884.72 367.11 880.89 338.34 868.03 314.84C864.71 308.78 860.73 302.92 855.25 298.71C850.93 295.4 845.85 293.23 840.73 291.38C831.373 288.02 821.696 285.63 811.85 284.25C810.111 283.934 808.335 283.877 806.58 284.08C804.17 284.47 802.01 285.77 799.86 286.93C790.652 291.866 780.44 294.64 770 295.04C756 295.57 740 292.27 729.21 301.25C716.21 312.02 719.45 333.03 711.02 347.65C705.44 357.32 694.68 364.34 692.91 375.35C692.449 378.715 692.663 382.139 693.54 385.42C697.66 402.36 714.06 415.48 731.54 415.79C734.224 415.995 736.912 415.444 739.3 414.2C740.864 413.133 742.245 411.819 743.39 410.31C754.84 396.75 767.94 370.91 789.57 378.87Z" fill="#444053"/>
<path opacity="0.1" d="M876.2 385.14C875.71 386.62 874.97 388.28 873.47 388.71C872.371 388.858 871.253 388.699 870.24 388.25C863.35 386.13 855.99 388.46 849.04 390.37C836.47 393.83 822.12 395.68 811.16 388.64C803.37 383.64 798.25 374.64 789.57 371.5C767.94 363.5 754.84 389.38 743.36 402.94C742.215 404.449 740.834 405.763 739.27 406.83C736.882 408.074 734.194 408.625 731.51 408.42C714.09 408.11 697.68 394.99 693.51 378.05C693.28 377.05 693.08 376.05 692.93 375.05C692.93 375.14 692.93 375.22 692.88 375.31C692.419 378.675 692.633 382.098 693.51 385.38C697.63 402.32 714.04 415.44 731.51 415.75C734.194 415.955 736.882 415.404 739.27 414.16C740.834 413.093 742.215 411.779 743.36 410.27C754.84 396.71 767.94 370.87 789.57 378.83C798.25 382.02 803.37 390.98 811.16 395.97C822.16 402.97 836.47 401.16 849.04 397.7C856.04 395.79 863.35 393.46 870.24 395.58C871.253 396.029 872.371 396.188 873.47 396.04C874.97 395.61 875.71 393.95 876.2 392.47C879.637 382.077 881.155 371.146 880.68 360.21C880.386 368.691 878.877 377.087 876.2 385.14V385.14Z" fill="black"/>
</g>
<defs>
<clipPath id="clip0">
<rect width="1144" height="617.32" fill="white" transform="translate(66 123)"/>
</clipPath>
</defs>
</svg>
